<?xml version="1.0" encoding="UTF-8"?>
<!DOCTYPE svg PUBLIC "-//W3C//DTD SVG 1.1//EN" "http://www.w3.org/Graphics/SVG/1.1/DTD/svg11.dtd">
<!-- Creator: CorelDRAW -->
<svg xmlns="http://www.w3.org/2000/svg" xml:space="preserve" width="2048px" height="2048px" style="shape-rendering:geometricPrecision; text-rendering:geometricPrecision; image-rendering:optimizeQuality; fill-rule:evenodd; clip-rule:evenodd"
viewBox="0 0 2048 2048"
 xmlns:xlink="http://www.w3.org/1999/xlink">
 <defs>
  <style type="text/css">
   <![CDATA[
    .fil2 {fill:none}
    .fil4 {fill:#EF6C00}
    .fil1 {fill:#FFB300}
    .fil0 {fill:#FFCA28}
    .fil6 {fill:#229D91;fill-rule:nonzero}
    .fil5 {fill:#26A69A;fill-rule:nonzero}
    .fil3 {fill:#FFA726;fill-rule:nonzero}
   ]]>
  </style>
   <clipPath id="id0">
    <path d="M1024 -0.0011811c565.541,0 1024,458.461 1024,1024 0,565.541 -458.461,1024 -1024,1024 -565.541,0 -1024,-458.461 -1024,-1024 0,-565.541 458.461,-1024 1024,-1024z"/>
   </clipPath>
 </defs>
 <g id="Layer_x0020_1">
  <metadata id="CorelCorpID_0Corel-Layer"/>
  <path class="fil0" d="M1024 -0.0011811c565.541,0 1024,458.461 1024,1024 0,565.541 -458.461,1024 -1024,1024 -565.541,0 -1024,-458.461 -1024,-1024 0,-565.541 458.461,-1024 1024,-1024z"/>
  <g style="clip-path:url(#id0)">
   <g id="_464375616">
    <g>
     <polygon id="_4668027041" class="fil1" points="1107.94,640.687 2243.82,1776.57 2244.86,1777.71 2245.75,1778.93 2246.51,1780.21 2247.13,1781.55 2247.61,1782.93 2247.96,1784.34 2248.17,1785.77 2248.23,1787.22 2248.17,1788.66 2247.96,1790.09 2247.61,1791.51 2247.13,1792.89 2246.51,1794.22 2245.75,1795.5 2244.86,1796.72 2243.82,1797.87 1107.94,661.985 1108.98,660.841 1109.87,659.623 1110.63,658.34 1111.25,657.003 1111.73,655.623 1112.08,654.212 1112.29,652.779 1112.35,651.336 1112.29,649.893 1112.08,648.46 1111.73,647.049 1111.25,645.669 1110.63,644.332 1109.87,643.049 1108.98,641.83 "/>
     <polygon id="_466802728" class="fil1" points="851.864,534.615 1987.74,1670.5 1988.72,1671.57 1989.58,1672.73 1990.34,1673.97 1990.97,1675.28 1991.48,1676.67 1991.85,1678.11 1992.08,1679.61 1992.16,1681.15 856.275,545.265 856.197,543.724 855.969,542.229 855.598,540.786 855.092,539.402 854.457,538.086 853.703,536.843 852.836,535.683 "/>
     <polygon id="_466803616" class="fil1" points="856.275,545.265 1992.16,1681.15 1992.16,1831.76 856.275,695.873 "/>
     <polygon id="_466803688" class="fil1" points="1107.94,661.985 2243.82,1797.87 2137.33,1904.36 1001.45,768.481 "/>
     <polygon id="_466803760" class="fil1" points="856.275,695.873 1992.16,1831.76 1992.08,1833.3 1991.85,1834.79 1991.48,1836.23 1990.97,1837.62 1990.34,1838.93 1989.58,1840.18 1988.72,1841.34 1987.74,1842.41 1986.68,1843.38 1985.52,1844.24 1984.27,1845 1982.96,1845.63 1981.57,1846.14 1980.13,1846.51 1978.63,1846.74 1977.09,1846.82 841.214,710.934 842.754,710.856 844.249,710.628 845.692,710.258 847.077,709.751 848.392,709.117 849.635,708.362 850.795,707.495 851.864,706.523 852.836,705.454 853.703,704.294 854.457,703.052 855.092,701.736 855.598,700.352 855.969,698.908 856.197,697.413 "/>
     <polygon id="_466803832" class="fil1" points="595.782,640.687 1731.66,1776.57 1838.16,1883.07 702.278,747.184 "/>
     <polygon id="_466803904" class="fil1" points="629.67,922.478 1765.55,2058.36 1614.94,2058.36 479.061,922.478 "/>
     <polygon id="_466803976" class="fil1" points="821.603,1517.36 1957.48,2653.25 1955.3,2653.25 1953.28,2653.25 1951.42,2653.25 1949.7,2653.26 1948.1,2653.26 1946.63,2653.27 1945.27,2653.28 1944,2653.29 1942.82,2653.3 1941.71,2653.31 1940.67,2653.33 1939.68,2653.34 1938.72,2653.35 1937.79,2653.37 1936.88,2653.38 1935.97,2653.39 800.092,1517.51 800.999,1517.5 801.91,1517.48 802.838,1517.47 803.794,1517.46 804.788,1517.44 805.834,1517.43 806.942,1517.42 808.123,1517.41 809.389,1517.4 810.752,1517.39 812.223,1517.38 813.814,1517.38 815.535,1517.37 817.4,1517.37 819.419,1517.36 "/>
     <polygon id="_466804048" class="fil1" points="800.092,1517.51 1935.97,2653.39 1932.68,2653.45 1929.35,2653.5 1925.98,2653.54 1922.58,2653.59 1919.14,2653.62 1915.68,2653.65 1912.19,2653.67 1908.68,2653.68 1905.16,2653.67 1901.62,2653.65 1898.07,2653.61 1894.52,2653.55 1890.97,2653.47 1887.41,2653.37 1883.87,2653.25 1880.33,2653.1 1876.8,2652.92 1873.3,2652.71 1869.81,2652.47 1866.35,2652.2 1862.91,2651.89 1859.51,2651.54 1856.14,2651.16 1852.81,2650.74 1849.52,2650.27 1846.28,2649.76 1843.08,2649.21 1839.95,2648.6 1836.86,2647.95 1833.84,2647.25 1830.88,2646.49 1828,2645.68 692.115,1509.8 695.004,1510.61 697.96,1511.36 700.981,1512.07 704.064,1512.72 707.203,1513.32 710.396,1513.88 713.638,1514.39 716.926,1514.85 720.257,1515.28 723.625,1515.66 727.03,1516.01 730.466,1516.31 733.929,1516.59 737.417,1516.83 740.924,1517.04 744.448,1517.22 747.986,1517.37 751.531,1517.49 755.084,1517.59 758.638,1517.67 762.19,1517.73 765.736,1517.77 769.274,1517.79 772.798,1517.8 776.306,1517.79 779.794,1517.77 783.258,1517.74 786.695,1517.71 790.1,1517.66 793.471,1517.61 796.803,1517.56 "/>
     <polygon id="_466804120" class="fil1" points="692.115,1509.8 1828,2645.68 1824.29,2644.55 1820.62,2643.34 1816.99,2642.07 1813.39,2640.71 1809.83,2639.29 1806.31,2637.8 1802.83,2636.23 1799.38,2634.6 1795.98,2632.9 1792.62,2631.13 1789.29,2629.29 1786.02,2627.39 1782.78,2625.42 1779.59,2623.39 1776.45,2621.3 1773.35,2619.14 1770.29,2616.92 1767.29,2614.64 1764.33,2612.3 1761.42,2609.9 625.539,1474.02 628.449,1476.42 631.407,1478.76 634.413,1481.04 637.466,1483.26 640.565,1485.41 643.711,1487.51 646.901,1489.54 650.136,1491.51 653.413,1493.41 656.735,1495.25 660.096,1497.02 663.5,1498.72 666.944,1500.35 670.427,1501.91 673.949,1503.41 677.509,1504.83 681.107,1506.18 684.741,1507.46 688.411,1508.67 "/>
     <polygon id="_466804192" class="fil1" points="687.648,1041.2 1823.53,2177.08 1824.56,2178.22 1825.46,2179.44 1826.22,2180.73 1826.84,2182.06 1827.32,2183.44 1827.66,2184.85 1827.87,2186.29 1827.94,2187.73 1827.87,2189.17 1827.66,2190.61 1827.32,2192.02 1826.84,2193.4 1826.22,2194.73 1825.46,2196.02 1824.56,2197.23 1823.53,2198.38 687.648,1062.5 688.681,1061.35 689.578,1060.13 690.336,1058.85 690.956,1057.51 691.438,1056.13 691.783,1054.72 691.99,1053.29 692.058,1051.85 691.99,1050.4 691.783,1048.97 691.438,1047.56 690.956,1046.18 690.336,1044.84 689.578,1043.56 688.681,1042.34 "/>
     <polygon id="_466804264" class="fil1" points="841.214,710.934 1977.09,1846.82 1975.55,1846.74 1974.06,1846.51 1972.62,1846.14 1971.23,1845.63 1969.92,1845 1968.67,1844.24 1967.51,1843.38 1966.44,1842.41 830.564,706.523 831.634,707.495 832.794,708.362 834.035,709.117 835.352,709.751 836.735,710.258 838.178,710.628 839.673,710.856 "/>
     <polygon id="_466804336" class="fil1" points="968.779,779.442 2104.66,1915.32 2110.72,1921.68 2116.47,1928.32 2121.9,1935.23 2127,1942.4 2131.76,1949.82 2136.16,1957.48 2140.2,1965.37 2143.86,1973.47 2147.14,1981.78 2150.01,1990.28 2152.48,1998.96 2154.52,2007.81 2156.13,2016.82 2157.29,2025.97 2158,2035.26 2158.24,2044.67 2158.22,2047.29 2158.17,2049.9 2158.07,2052.5 2157.95,2055.09 2157.78,2057.67 2157.59,2060.24 2157.35,2062.8 2157.08,2065.35 2156.78,2067.89 2156.44,2070.42 2156.07,2072.93 2155.66,2075.44 2155.22,2077.94 2154.75,2080.42 2154.24,2082.89 2153.7,2085.35 2153.13,2087.79 2152.52,2090.23 2151.88,2092.65 2151.21,2095.06 2150.51,2097.45 2149.78,2099.83 2149.01,2102.2 2148.21,2104.55 2147.39,2106.89 2146.53,2109.21 2145.64,2111.52 2144.72,2113.81 2143.77,2116.09 2142.8,2118.35 2141.79,2120.6 2140.75,2122.83 1004.87,986.944 1005.91,984.714 1006.91,982.468 1007.89,980.206 1008.84,977.929 1009.76,975.635 1010.65,973.327 1011.51,971.004 1012.33,968.666 1013.13,966.315 1013.89,963.948 1014.63,961.568 1015.33,959.174 1016,956.766 1016.64,954.346 1017.25,951.911 1017.82,949.465 1018.36,947.006 1018.87,944.535 1019.34,942.053 1019.78,939.557 1020.19,937.051 1020.56,934.534 1020.9,932.005 1021.2,929.466 1021.47,926.916 1021.7,924.355 1021.9,921.785 1022.07,919.205 1022.19,916.615 1022.28,914.017 1022.34,911.409 1022.36,908.792 1022.12,899.378 1021.41,890.089 1020.25,880.934 1018.64,871.926 1016.6,863.075 1014.13,854.395 1011.26,845.896 1007.98,837.588 1004.32,829.485 1000.28,821.598 995.874,813.937 991.116,806.515 986.016,799.344 980.585,792.433 974.835,785.795 "/>
     <polygon id="_466804408" class="fil1" points="1001.45,768.481 2137.33,1904.36 2136.18,1905.4 2134.97,1906.29 2133.68,1907.05 2132.35,1907.67 2130.97,1908.15 2129.56,1908.5 2128.12,1908.71 2126.68,1908.77 2125.24,1908.71 2123.8,1908.5 2122.39,1908.15 2121.01,1907.67 2119.68,1907.05 2118.39,1906.29 2117.17,1905.4 2116.03,1904.36 980.149,768.481 981.292,769.515 982.511,770.411 983.794,771.169 985.131,771.79 986.511,772.271 987.922,772.616 989.355,772.823 990.798,772.892 992.241,772.823 993.674,772.616 995.085,772.271 996.465,771.79 997.802,771.169 999.085,770.411 1000.3,769.515 "/>
     <polygon id="_466804480" class="fil1" points="1428.65,961.315 2564.53,2097.2 2567.98,2101.03 2571.37,2104.93 2574.68,2108.89 2577.91,2112.92 2581.07,2117 2584.16,2121.15 2587.16,2125.36 2590.09,2129.63 2592.94,2133.95 2595.7,2138.33 2598.39,2142.77 2600.99,2147.26 2603.51,2151.8 2605.94,2156.39 2608.28,2161.03 2610.54,2165.71 2612.71,2170.45 2614.79,2175.22 2616.77,2180.05 2618.67,2184.91 2620.47,2189.82 2622.17,2194.77 2623.79,2199.75 2625.3,2204.78 1489.42,1068.89 1487.9,1063.87 1486.29,1058.89 1484.59,1053.94 1482.79,1049.03 1480.89,1044.17 1478.91,1039.34 1476.83,1034.56 1474.66,1029.83 1472.4,1025.14 1470.06,1020.5 1467.63,1015.91 1465.11,1011.37 1462.51,1006.89 1459.82,1002.45 1457.06,998.071 1454.21,993.747 1451.28,989.48 1448.27,985.27 1445.19,981.121 1442.03,977.033 1438.8,973.007 1435.49,969.044 1432.1,965.147 "/>
     <polygon id="_466804552" class="fil1" points="1521.88,1098.54 2657.76,2234.42 2660.01,2236.92 2662.21,2239.45 2664.38,2242 2666.5,2244.59 2668.59,2247.2 2670.65,2249.85 2672.66,2252.52 2674.63,2255.23 2676.57,2257.96 2678.47,2260.72 2680.32,2263.5 2682.14,2266.32 2683.92,2269.16 2685.66,2272.03 2687.36,2274.93 2689.01,2277.85 2690.63,2280.81 2692.21,2283.79 2693.74,2286.79 1557.86,1150.91 1556.33,1147.9 1554.75,1144.92 1553.13,1141.97 1551.47,1139.05 1549.78,1136.15 1548.04,1133.28 1546.26,1130.44 1544.44,1127.62 1542.58,1124.83 1540.69,1122.07 1538.75,1119.34 1536.78,1116.64 1534.76,1113.97 1532.71,1111.32 1530.62,1108.71 1528.5,1106.12 1526.33,1103.56 1524.13,1101.04 "/>
     <polygon id="_466804624" class="fil1" points="1104.02,922.478 2239.91,2058.36 2188.64,2058.36 1052.76,922.478 "/>
     <polygon id="_466804696" class="fil1" points="479.061,922.478 1614.94,2058.36 1613.4,2058.28 1611.91,2058.05 1610.46,2057.68 1609.08,2057.18 1607.76,2056.54 1606.52,2055.79 1605.36,2054.92 1604.29,2053.95 468.411,918.067 469.48,919.039 470.64,919.906 471.883,920.661 473.198,921.295 474.583,921.801 476.026,922.172 477.521,922.4 "/>
     <polygon id="_466804768" class="fil1" points="581.151,1168.99 1717.03,2304.87 1715.89,2305.91 1714.67,2306.8 1713.39,2307.56 1712.05,2308.18 1710.67,2308.66 1709.26,2309.01 1707.83,2309.22 1706.38,2309.28 1704.94,2309.22 1703.51,2309.01 1702.1,2308.66 1700.72,2308.18 1699.38,2307.56 1698.1,2306.8 1696.88,2305.91 560.997,1170.03 562.216,1170.92 563.498,1171.68 564.835,1172.3 566.215,1172.78 567.626,1173.13 569.059,1173.33 570.502,1173.4 571.946,1173.33 573.378,1173.13 574.79,1172.78 576.169,1172.3 577.506,1171.68 578.789,1170.92 580.008,1170.03 "/>
     <polygon id="_466804840" class="fil1" points="640.32,896.767 1776.2,2032.65 1777.17,2033.72 1778.04,2034.88 1778.79,2036.12 1779.43,2037.44 1779.94,2038.82 1780.31,2040.26 1780.53,2041.76 1780.61,2043.3 644.731,907.417 644.653,905.877 644.425,904.381 644.054,902.938 643.548,901.554 642.913,900.238 642.159,898.996 641.292,897.836 "/>
     <polygon id="_466804912" class="fil1" points="702.278,747.184 1838.16,1883.07 1839.19,1884.21 1840.09,1885.43 1840.85,1886.71 1841.47,1888.05 1841.95,1889.43 1842.29,1890.84 1842.5,1892.27 1842.57,1893.71 1842.5,1895.16 1842.29,1896.59 1841.95,1898 1841.47,1899.38 1840.85,1900.72 1840.09,1902 1839.19,1903.22 1838.16,1904.36 702.278,768.481 703.312,767.338 704.208,766.119 704.966,764.836 705.586,763.499 706.068,762.12 706.413,760.708 706.62,759.276 706.688,757.832 706.62,756.389 706.413,754.956 706.068,753.545 705.586,752.166 704.966,750.829 704.208,749.546 703.312,748.327 "/>
     <polygon id="_466804984" class="fil1" points="702.278,768.481 1838.16,1904.36 1837.02,1905.4 1835.8,1906.29 1834.51,1907.05 1833.18,1907.67 1831.8,1908.15 1830.39,1908.5 1828.95,1908.71 1827.51,1908.77 1826.07,1908.71 1824.63,1908.5 1823.22,1908.15 1821.84,1907.67 1820.51,1907.05 1819.22,1906.29 1818,1905.4 1816.86,1904.36 680.98,768.481 682.124,769.515 683.343,770.411 684.625,771.169 685.962,771.79 687.342,772.271 688.753,772.616 690.186,772.823 691.629,772.892 693.073,772.823 694.505,772.616 695.917,772.271 697.296,771.79 698.633,771.169 699.916,770.411 701.135,769.515 "/>
     <polygon id="_466805056" class="fil1" points="1513.75,1444.24 2649.63,2580.12 2645.54,2584.3 2641.37,2588.38 2637.09,2592.35 2632.73,2596.22 2628.27,2599.98 2623.72,2603.62 2619.09,2607.16 2614.37,2610.58 2609.57,2613.89 2604.68,2617.07 2599.72,2620.14 2594.67,2623.09 2589.55,2625.91 2584.34,2628.6 2579.07,2631.17 2573.72,2633.6 2568.3,2635.91 2562.81,2638.08 2557.26,2640.11 2551.64,2642.01 2545.95,2643.76 2540.2,2645.37 2534.38,2646.84 2528.51,2648.16 2522.58,2649.34 2516.59,2650.36 2510.55,2651.24 2504.45,2651.95 2498.31,2652.52 2492.11,2652.92 2485.86,2653.16 2479.57,2653.25 1343.69,1517.36 1349.98,1517.28 1356.23,1517.04 1362.43,1516.63 1368.57,1516.07 1374.67,1515.35 1380.71,1514.48 1386.7,1513.46 1392.63,1512.28 1398.5,1510.96 1404.32,1509.49 1410.07,1507.88 1415.75,1506.12 1421.38,1504.23 1426.93,1502.19 1432.42,1500.02 1437.84,1497.72 1443.19,1495.28 1448.46,1492.72 1453.66,1490.02 1458.79,1487.2 1463.83,1484.26 1468.8,1481.19 1473.69,1478 1478.49,1474.7 1483.21,1471.28 1487.84,1467.74 1492.39,1464.09 1496.85,1460.33 1501.21,1456.47 1505.48,1452.49 1509.66,1448.42 "/>
     <polygon id="_466805128" class="fil1" points="1557.86,1150.91 2693.74,2286.79 2695.32,2289.98 2696.84,2293.2 2698.32,2296.44 2699.75,2299.72 2701.14,2303.01 2702.47,2306.34 2703.76,2309.69 2705.01,2313.07 2706.2,2316.47 2707.34,2319.9 2708.44,2323.35 2709.49,2326.83 2710.49,2330.33 2711.44,2333.86 2712.34,2337.41 2713.19,2340.99 2713.99,2344.59 2714.74,2348.21 2715.45,2351.86 2716.1,2355.53 2716.7,2359.22 2717.25,2362.93 2717.74,2366.67 2718.19,2370.43 2718.58,2374.21 2718.93,2378.02 2719.22,2381.84 2719.46,2385.69 2719.64,2389.55 2719.77,2393.44 2719.85,2397.35 2719.88,2401.28 1584,1265.39 1583.97,1261.46 1583.89,1257.56 1583.76,1253.67 1583.57,1249.8 1583.34,1245.96 1583.05,1242.13 1582.7,1238.33 1582.31,1234.55 1581.86,1230.79 1581.36,1227.05 1580.82,1223.34 1580.22,1219.65 1579.56,1215.98 1578.86,1212.33 1578.11,1208.71 1577.31,1205.11 1576.46,1201.53 1575.56,1197.98 1574.61,1194.45 1573.61,1190.95 1572.56,1187.47 1571.46,1184.02 1570.32,1180.59 1569.12,1177.18 1567.88,1173.81 1566.59,1170.46 1565.25,1167.13 1563.87,1163.83 1562.44,1160.56 1560.96,1157.32 1559.43,1154.1 "/>
     <polygon id="_466805200" class="fil1" points="1584,1265.39 2719.88,2401.28 2719.88,2402.74 2719.87,2404.2 2719.85,2405.65 2719.82,2407.11 2719.78,2408.56 2719.74,2410.01 2719.69,2411.46 2719.63,2412.91 2719.57,2414.36 2719.49,2415.8 2719.41,2417.24 2719.32,2418.68 2719.23,2420.12 2719.13,2421.56 2719.01,2422.99 2718.9,2424.42 2718.77,2425.85 2718.64,2427.28 2718.49,2428.7 2718.35,2430.12 2718.19,2431.54 2718.03,2432.96 2717.86,2434.38 2717.68,2435.79 2717.49,2437.2 2717.3,2438.61 2717.1,2440.02 2716.89,2441.42 2716.68,2442.82 2716.45,2444.22 2716.23,2445.61 2715.99,2447.01 1580.11,1311.13 1580.34,1309.73 1580.57,1308.34 1580.8,1306.94 1581.01,1305.54 1581.22,1304.13 1581.42,1302.73 1581.61,1301.32 1581.8,1299.91 1581.97,1298.49 1582.14,1297.08 1582.31,1295.66 1582.46,1294.24 1582.61,1292.82 1582.75,1291.39 1582.89,1289.97 1583.01,1288.54 1583.13,1287.11 1583.24,1285.67 1583.35,1284.24 1583.44,1282.8 1583.53,1281.36 1583.61,1279.92 1583.69,1278.48 1583.75,1277.03 1583.81,1275.58 1583.86,1274.13 1583.9,1272.68 1583.94,1271.23 1583.96,1269.77 1583.98,1268.31 1584,1266.85 "/>
     <polygon id="_466805272" class="fil1" points="1052.76,922.478 2188.64,2058.36 2187.1,2058.28 2185.6,2058.05 2184.16,2057.68 2182.78,2057.18 2181.46,2056.54 2180.22,2055.79 2179.06,2054.92 2177.99,2053.95 1042.11,918.067 1043.18,919.039 1044.34,919.906 1045.58,920.661 1046.89,921.295 1048.28,921.801 1049.72,922.172 1051.22,922.4 "/>
     <polygon id="_466805344" class="fil1" points="1580.11,1311.13 2715.99,2447.01 2715.12,2451.81 2714.16,2456.58 2713.11,2461.32 2711.99,2466.02 2710.78,2470.69 2709.48,2475.33 2708.11,2479.92 2706.66,2484.48 2705.12,2489.01 2703.51,2493.49 2701.82,2497.93 2700.05,2502.33 2698.2,2506.69 2696.28,2511 2694.29,2515.27 2692.22,2519.5 2690.07,2523.68 2687.85,2527.81 2685.56,2531.89 2683.2,2535.92 2680.77,2539.9 2678.27,2543.84 2675.71,2547.72 2673.07,2551.54 2670.37,2555.31 2667.6,2559.03 2664.76,2562.69 2661.86,2566.3 2658.9,2569.84 2655.87,2573.33 2652.78,2576.76 2649.63,2580.12 1513.75,1444.24 1516.9,1440.87 1519.99,1437.45 1523.02,1433.96 1525.98,1430.41 1528.88,1426.81 1531.72,1423.15 1534.49,1419.43 1537.19,1415.66 1539.83,1411.83 1542.39,1407.95 1544.89,1404.02 1547.32,1400.04 1549.68,1396.01 1551.97,1391.92 1554.19,1387.79 1556.33,1383.62 1558.4,1379.39 1560.4,1375.12 1562.32,1370.81 1564.17,1366.45 1565.94,1362.05 1567.63,1357.61 1569.24,1353.13 1570.78,1348.6 1572.23,1344.04 1573.6,1339.45 1574.89,1334.81 1576.11,1330.14 1577.23,1325.44 1578.28,1320.7 1579.24,1315.93 "/>
     <polygon id="_466805416" class="fil1" points="644.731,907.417 1780.61,2043.3 1780.53,2044.84 1780.31,2046.33 1779.94,2047.78 1779.43,2049.16 1778.79,2050.48 1778.04,2051.72 1777.17,2052.88 1776.2,2053.95 1775.13,2054.92 1773.97,2055.79 1772.73,2056.54 1771.41,2057.18 1770.03,2057.68 1768.59,2058.05 1767.09,2058.28 1765.55,2058.36 629.67,922.478 631.21,922.4 632.705,922.172 634.149,921.801 635.533,921.295 636.849,920.661 638.091,919.906 639.251,919.039 640.32,918.067 641.292,916.998 642.159,915.838 642.913,914.596 643.548,913.28 644.054,911.896 644.425,910.452 644.653,908.957 "/>
     <polygon id="_466805488" class="fil1" points="779.646,1081.73 1915.53,2217.61 1908.87,2215.16 1902.33,2212.46 1895.93,2209.53 1889.66,2206.35 1883.53,2202.94 1877.55,2199.31 1871.72,2195.46 1866.05,2191.4 1860.54,2187.13 1855.21,2182.65 1850.05,2177.98 714.166,1042.1 719.326,1046.77 724.662,1051.25 730.169,1055.52 735.839,1059.58 741.668,1063.43 747.649,1067.06 753.778,1070.47 760.047,1073.64 766.452,1076.58 772.987,1079.28 "/>
     <polygon id="_466805560" class="fil1" points="687.648,1062.5 1823.53,2198.38 1717.03,2304.87 581.151,1168.99 "/>
     <polygon id="_466805632" class="fil1" points="1343.69,1517.36 2479.57,2653.25 1957.48,2653.25 821.603,1517.36 "/>
    </g>
    <path id="_464376912" class="fil1" d="M1052.76 892.355l106.929 0c25.5685,-9.73347 53.2075,-15.1181 82.4056,-15.1181 58.6146,0 112.937,21.1417 156.465,55.9666 42.8811,34.304 75.2363,81.9142 90.8599,135.691 29.1118,22.1138 52.2804,49.8178 68.4449,82.0134 17.0126,33.8847 26.1378,72.4796 26.1378,114.484 0,15.5953 -1.33228,30.8823 -3.89174,45.7323 -8.85827,51.3922 -32.4213,97.5426 -66.3603,133.114 -43.0477,45.117 -102.683,73.1245 -170.062,73.1245l-522.083 0c-12.1099,0 -16.6665,0.0732284 -21.5103,0.148819 -34.8508,0.551575 -77.5406,1.22835 -107.978,-7.71379 -39.6981,-11.6622 -73.565,-36.163 -97.4009,-68.8571 -23.5004,-32.2335 -37.2532,-72.3544 -37.2532,-115.931 0,-4.663 0.175984,-9.29292 0.519685,-13.8862 0.42874,-5.72717 1.11969,-11.3965 2.05748,-16.9984 8.12481,-48.515 34.9051,-90.5516 71.2193,-120.362 35.9988,-29.5524 81.5056,-47.1851 127.473,-47.1851 2.51693,0 5.05748,0.0555119 7.6193,0.172441 2.99764,-15.6213 7.45985,-30.7394 13.2969,-45.0248 -71.6705,-24.7725 -123.144,-92.843 -123.144,-172.935 0,-101.028 81.9001,-182.928 182.927,-182.928 101.028,0 182.928,81.9001 182.928,182.928 0,27.9591 -6.27284,54.4536 -17.4874,78.1524 8.83347,4.47638 17.3599,9.74765 25.4788,15.7583 19.2343,-31.4091 44.204,-58.9843 73.676,-80.2241l-51.267 0c-8.31851,0 -15.0614,-6.74292 -15.0614,-15.0614 0,-8.31851 6.74292,-15.0614 15.0614,-15.0614zm33.8882 -251.668c5.88071,-5.88071 15.4169,-5.88071 21.2977,0 5.88071,5.88071 5.88071,15.4169 0,21.2977l-106.497 106.497c-5.88071,5.88071 -15.4169,5.88071 -21.2977,0 -5.88071,-5.88071 -5.88071,-15.4169 0,-21.2977l106.497 -106.497zm-398.998 400.511c5.88071,5.88071 5.88071,15.4169 0,21.2977l-106.497 106.497c-5.88071,5.88071 -15.4169,5.88071 -21.2977,0 -5.88071,-5.88071 -5.88071,-15.4169 0,-21.2977l106.497 -106.497c5.88071,-5.88071 15.4169,-5.88071 21.2977,0zm-91.8662 -400.511l106.497 106.497c5.88071,5.88071 5.88071,15.4169 0,21.2977 -5.88071,5.88071 -15.4169,5.88071 -21.2977,0l-106.497 -106.497c-5.88071,-5.88071 -5.88071,-15.4169 0,-21.2977 5.88071,-5.88071 15.4169,-5.88071 21.2977,0zm245.432 -110.484c8.31851,0 15.0614,6.74292 15.0614,15.0614l0 150.608c0,8.31851 -6.74292,15.0614 -15.0614,15.0614 -8.31733,0 -15.0614,-6.74292 -15.0614,-15.0614l0 -150.608c0,-8.31851 6.7441,-15.0614 15.0614,-15.0614zm-362.152 362.152l150.608 0c8.31851,0 15.0614,6.74292 15.0614,15.0614 0,8.31851 -6.74292,15.0614 -15.0614,15.0614l-150.608 0c-8.31851,0 -15.0614,-6.74292 -15.0614,-15.0614 0,-8.31851 6.74292,-15.0614 15.0614,-15.0614z"/>
   </g>
  </g>
  <path class="fil2" d="M1024 -0.0011811c565.541,0 1024,458.461 1024,1024 0,565.541 -458.461,1024 -1024,1024 -565.541,0 -1024,-458.461 -1024,-1024 0,-565.541 458.461,-1024 1024,-1024z"/>
  <path class="fil3" d="M1052.76 922.478c-8.31851,0 -15.0614,-6.74292 -15.0614,-15.0614 0,-8.31733 6.74292,-15.0614 15.0614,-15.0614l150.61 0c8.31733,0 15.0614,6.7441 15.0614,15.0614 0,8.31851 -6.7441,15.0614 -15.0614,15.0614l-150.61 0z"/>
  <ellipse class="fil4" cx="839.429" cy="908.791" rx="182.928" ry="182.928"/>
  <path class="fil5" d="M1242.09 877.237c58.6146,0 112.937,21.1417 156.465,55.9666 42.8811,34.3051 75.2363,81.9142 90.8599,135.691 29.1118,22.1138 52.2804,49.8178 68.4449,82.0123 17.0126,33.8859 26.1378,72.4808 26.1378,114.486 0,69.5729 -26.5063,132.997 -70.252,178.846 -43.0477,45.117 -102.683,73.1245 -170.062,73.1245l-522.083 0c-12.1099,0 -16.6665,0.0732284 -21.5103,0.148819 -34.8508,0.551575 -77.5406,1.22835 -107.978,-7.71379 -39.6981,-11.6622 -73.565,-36.1618 -97.4009,-68.8571 -23.5004,-32.2335 -37.2532,-72.3544 -37.2532,-115.931 0,-10.4764 0.887009,-20.791 2.57717,-30.8847 8.12481,-48.515 34.9051,-90.5516 71.2193,-120.362 35.9988,-29.5524 81.5056,-47.1863 127.473,-47.1863 2.51693,0 5.05748,0.056693 7.6193,0.173622 5.68347,-29.6209 16.6347,-57.4359 32.2394,-81.1914 19.0087,-28.937 44.8607,-51.8894 76.4989,-64.9441 30.2823,-12.4854 62.0493,-14.3433 92.1119,-7.40434 22.4374,5.17796 43.937,15.2681 63.1489,29.491 20.8618,-34.0666 48.4701,-63.6225 81.2528,-85.4776 37.6028,-25.0677 81.8859,-39.9874 130.491,-39.9874z"/>
  <path class="fil6" d="M1580.1 1311.12c-8.85946,51.3922 -32.4177,97.5438 -66.3567,133.115 -43.0477,45.117 -102.683,73.1245 -170.062,73.1245l-522.083 0c-12.1099,0 -16.6665,0.0732284 -21.5103,0.148819 -34.8508,0.551575 -77.5406,1.22835 -107.978,-7.71379 -39.6981,-11.6622 -73.565,-36.1618 -97.4009,-68.8571 -23.5004,-32.2335 -37.2532,-72.3544 -37.2532,-115.931 0,-4.66181 0.174803,-9.29292 0.519685,-13.8862l1022.12 0z"/>
  <path class="fil3" d="M826.152 545.265c0,-8.31851 6.7441,-15.0626 15.0614,-15.0626 8.31851,0 15.0614,6.7441 15.0614,15.0626l0 150.608c0,8.31851 -6.74292,15.0614 -15.0614,15.0614 -8.31733,0 -15.0614,-6.74292 -15.0614,-15.0614l0 -150.608z"/>
  <path class="fil3" d="M574.484 661.985c-5.88071,-5.88071 -5.88071,-15.4169 0,-21.2977 5.88071,-5.88071 15.4169,-5.88071 21.2977,0l106.497 106.497c5.88189,5.88071 5.88189,15.4169 0,21.2977 -5.88071,5.88071 -15.4169,5.88071 -21.2977,0l-106.497 -106.497z"/>
  <path class="fil3" d="M1086.65 640.687c5.88071,-5.88071 15.4169,-5.88071 21.2977,0 5.88071,5.88071 5.88071,15.4169 0,21.2977l-106.497 106.497c-5.88071,5.88071 -15.4169,5.88071 -21.2977,0 -5.88071,-5.88071 -5.88071,-15.4169 0,-21.2977l106.497 -106.497z"/>
  <path class="fil3" d="M666.35 1041.2c5.88071,-5.88071 15.4169,-5.88071 21.2977,0 5.88071,5.88071 5.88071,15.4169 0,21.2977l-106.497 106.497c-5.88071,5.88071 -15.4169,5.88071 -21.2977,0 -5.88071,-5.88071 -5.88071,-15.4169 0,-21.2977l106.497 -106.497z"/>
  <path class="fil3" d="M479.061 922.478c-8.31851,0 -15.0614,-6.74292 -15.0614,-15.0614 0,-8.31733 6.74292,-15.0614 15.0614,-15.0614l150.608 0c8.31851,0 15.0614,6.7441 15.0614,15.0614 0,8.31851 -6.74292,15.0614 -15.0614,15.0614l-150.608 0z"/>
 </g>
</svg>
